<svg width="32" height="32" viewBox="0 0 32 32" fill="none" xmlns="http://www.w3.org/2000/svg">
<path d="M16.0031 8.82115C12.0303 8.82115 8.82588 12.0263 8.82588 16C8.82588 19.9737 12.0303 23.1788 16.0031 23.1788C19.9759 23.1788 23.1804 19.9737 23.1804 16C23.1804 12.0263 19.9759 8.82115 16.0031 8.82115ZM16.0031 20.6672C13.4358 20.6672 11.337 18.5741 11.337 16C11.337 13.4259 13.4296 11.3328 16.0031 11.3328C18.5767 11.3328 20.6693 13.4259 20.6693 16C20.6693 18.5741 18.5704 20.6672 16.0031 20.6672ZM25.148 8.5275C25.148 9.45844 24.3984 10.2019 23.474 10.2019C22.5432 10.2019 21.7999 9.45219 21.7999 8.5275C21.7999 7.60281 22.5495 6.85306 23.474 6.85306C24.3984 6.85306 25.148 7.60281 25.148 8.5275ZM29.9016 10.2269C29.7954 7.98393 29.2832 5.9971 27.6404 4.36014C26.0038 2.72319 24.0174 2.21086 21.7749 2.0984C19.4637 1.9672 12.5363 1.9672 10.2251 2.0984C7.98885 2.20462 6.00246 2.71695 4.35962 4.3539C2.71678 5.99085 2.21082 7.97769 2.09838 10.2207C1.96721 12.5324 1.96721 19.4613 2.09838 21.7731C2.20457 24.0161 2.71679 26.0029 4.35962 27.6399C6.00245 29.2768 7.9826 29.7891 10.2251 29.9016C12.5363 30.0328 19.4637 30.0328 21.7749 29.9016C24.0174 29.7954 26.0038 29.2831 27.6404 27.6399C29.277 26.0029 29.7892 24.0161 29.9016 21.7731C30.0328 19.4613 30.0328 12.5387 29.9016 10.2269ZM26.9158 24.2535C26.4286 25.4781 25.4853 26.4215 24.2548 26.9151C22.412 27.6461 18.0395 27.4774 16.0031 27.4774C13.9668 27.4774 9.58795 27.6399 7.75148 26.9151C6.52716 26.4278 5.58394 25.4843 5.09046 24.2535C4.35962 22.4104 4.52828 18.0368 4.52828 16C4.52828 13.9632 4.36587 9.5834 5.09046 7.74651C5.57769 6.52192 6.52091 5.57849 7.75148 5.0849C9.5942 4.3539 13.9668 4.52259 16.0031 4.52259C18.0395 4.52259 22.4183 4.36014 24.2548 5.0849C25.4791 5.57224 26.4223 6.51568 26.9158 7.74651C27.6466 9.58965 27.478 13.9632 27.478 16C27.478 18.0368 27.6466 22.4166 26.9158 24.2535Z" fill="#86DBC7"/>
</svg>
