<svg width="36" height="36" viewBox="0 0 36 36" fill="none" xmlns="http://www.w3.org/2000/svg">
<path d="M32.8227 10.1531C32.6556 9.48573 32.3154 8.87424 31.8364 8.38042C31.3574 7.88659 30.7566 7.52792 30.0946 7.34063C27.6758 6.75 18.0008 6.75 18.0008 6.75C18.0008 6.75 8.3258 6.75 5.90705 7.39687C5.24506 7.58417 4.64421 7.94284 4.1652 8.43666C3.68619 8.93049 3.34598 9.54198 3.17893 10.2094C2.73626 12.6641 2.51973 15.1542 2.53205 17.6484C2.51627 20.1615 2.73282 22.6706 3.17893 25.1438C3.36309 25.7904 3.71092 26.3786 4.18882 26.8516C4.66672 27.3246 5.25852 27.6663 5.90705 27.8438C8.3258 28.4906 18.0008 28.4906 18.0008 28.4906C18.0008 28.4906 27.6758 28.4906 30.0946 27.8438C30.7566 27.6565 31.3574 27.2978 31.8364 26.804C32.3154 26.3101 32.6556 25.6986 32.8227 25.0312C33.2619 22.595 33.4785 20.1239 33.4696 17.6484C33.4853 15.1354 33.2688 12.6263 32.8227 10.1531Z" stroke="#86DBC7" stroke-width="3" stroke-linecap="round" stroke-linejoin="round"/>
<path d="M14.8359 22.2477L22.9219 17.6492L14.8359 13.0508V22.2477Z" stroke="#86DBC7" stroke-width="3" stroke-linecap="round" stroke-linejoin="round"/>
</svg>
