<svg width="32" height="32" viewBox="0 0 32 32" fill="none" xmlns="http://www.w3.org/2000/svg">
<path d="M29.2495 27.9759L20.2873 13.9008L29.0614 4.2495C29.9621 3.23421 29.4259 1.62466 28.0963 1.3523C27.4941 1.22893 26.871 1.4282 26.4521 1.87819L18.3318 10.8169L12.7943 2.11766C12.4709 1.60915 11.9101 1.30106 11.3074 1.30078H4.25519C2.89798 1.30141 2.05041 2.77102 2.72956 3.94608C2.74203 3.96766 2.75496 3.98898 2.76835 4.01002L11.7306 18.0851L2.95053 27.7364C2.02575 28.7298 2.52313 30.3517 3.84582 30.6559C4.47442 30.8005 5.13181 30.5902 5.55985 30.1077L13.6861 21.169L19.2236 29.8682C19.547 30.3767 20.1077 30.6848 20.7104 30.6851H27.7626C29.1198 30.6845 29.9674 29.2149 29.2883 28.0398C29.2758 28.0182 29.2629 27.9969 29.2495 27.9759ZM21.6786 27.159L7.4669 4.82689H10.3392L24.5509 27.159H21.6786Z" fill="#86DBC7"/>
</svg>
