<svg width="32" height="32" viewBox="0 0 32 32" fill="none" xmlns="http://www.w3.org/2000/svg">
<path d="M3.21187 25.8394C3.34187 27.4362 4.56375 28.6581 6.16062 28.7881C8.17812 28.9519 11.3975 29.125 16 29.125C20.6025 29.125 23.8219 28.9519 25.8394 28.7881C27.4362 28.6581 28.6581 27.4362 28.7881 25.8394C28.9519 23.8219 29.125 20.6025 29.125 16C29.125 11.3975 28.9519 8.17812 28.7881 6.16062C28.6581 4.56375 27.4362 3.34187 25.8394 3.21187C23.8219 3.04812 20.6025 2.875 16 2.875C11.3975 2.875 8.17812 3.04812 6.16062 3.21187C4.56375 3.34187 3.34187 4.56375 3.21187 6.16062C3.04812 8.17812 2.875 11.3975 2.875 16C2.875 20.6025 3.04812 23.8219 3.21187 25.8394Z" stroke="#86DBC7" stroke-width="2.4" stroke-linecap="round" stroke-linejoin="round"/>
<path d="M19.4475 29.0902V19.7752H22.9094C23.4644 19.7752 23.9637 19.4096 24.045 18.8608C24.1543 18.0905 24.1511 17.3084 24.0356 16.5389C23.9556 16.0002 23.4756 15.6452 22.9306 15.6452H19.4475C19.4475 12.5239 19.9669 12.0702 22.8944 12.0133C23.4562 12.0021 23.96 11.6321 24.0419 11.0758C24.1794 10.1414 24.1244 9.32457 24.0381 8.75082C23.9587 8.21957 23.4831 7.87457 22.9469 7.87895C17.7725 7.92395 14.8256 8.53582 14.8256 15.6452H12.1456C11.6244 15.6452 11.1619 15.9714 11.0831 16.4864C10.9981 17.0414 10.9469 17.8458 11.0887 18.8239C11.17 19.3889 11.6787 19.7752 12.25 19.7752H14.8256V29.1221" stroke="#86DBC7" stroke-width="2.4" stroke-linecap="round" stroke-linejoin="round"/>
</svg>
